<svg xmlns="http://www.w3.org/2000/svg" width="20" height="20" viewBox="0 0 20 20" fill="none">
<path d="M15.0323 13.2549C16.3243 11.299 17.0193 9.1179 17.0143 7.09684C17.01 4.92425 16.1716 3.18154 14.6818 2.19119C13.1954 1.21368 11.2761 1.13637 9.26292 1.99223C7.40971 2.77771 5.66866 4.28982 4.3861 6.22939C3.10697 8.1818 2.39908 10.3664 2.40407 12.3874C2.42122 14.5566 3.2468 16.3027 4.73661 17.2931C5.97197 18.104 7.49678 18.3007 9.12698 17.8639C9.47356 17.771 9.81326 17.6525 10.1589 17.5049C12.025 16.7159 13.7532 15.2073 15.0323 13.2549ZM11.2243 6.48828C10.4134 7.72364 10.4016 8.55228 10.3985 9.51617C10.3894 10.5092 10.3856 11.6246 9.39866 13.1272C8.15712 15.0145 6.75386 15.5281 5.74164 15.9094C5.60388 15.9601 5.47896 16.0073 5.35403 16.0545C5.32836 16.0614 5.31553 16.0648 5.28985 16.0717C5.03313 16.1405 4.76332 16.0064 4.65602 15.76C4.54185 15.4879 4.67844 15.1762 4.95396 15.0749C5.09171 15.0242 5.22947 14.9735 5.36723 14.9228C6.34094 14.5519 7.45585 14.1431 8.51541 12.5522C9.3263 11.3168 9.33815 10.4882 9.34127 9.52428C9.35036 8.53129 9.35416 7.41588 10.3411 5.91324C11.6108 3.97711 12.7404 3.67444 13.9248 3.37084L14.066 3.33301C14.3484 3.25734 14.6413 3.42648 14.717 3.70888C14.7927 3.99128 14.6235 4.28424 14.3411 4.35991L14.1871 4.40118C13.0797 4.68414 12.271 4.90082 11.2243 6.48828Z" fill="#000"></path>
</svg>